<?xml version="1.0" encoding="UTF-8" standalone="no"?>
<!-- Created with Inkscape (http://www.inkscape.org/) -->

<svg
   xmlns:dc="http://purl.org/dc/elements/1.1/"
   xmlns:cc="http://creativecommons.org/ns#"
   xmlns:rdf="http://www.w3.org/1999/02/22-rdf-syntax-ns#"
   xmlns:svg="http://www.w3.org/2000/svg"
   xmlns="http://www.w3.org/2000/svg"
   xmlns:sodipodi="http://sodipodi.sourceforge.net/DTD/sodipodi-0.dtd"
   xmlns:inkscape="http://www.inkscape.org/namespaces/inkscape"
   version="1.1"
   id="svg23"
   width="434"
   height="466"
   viewBox="0 0 434 466"
   sodipodi:docname="bussola.svg"
   inkscape:version="0.92.4 (5da689c313, 2019-01-14)"
   inkscape:export-filename="C:\xampp\htdocs\waycoding-novo\img\logo\bussula.png"
   inkscape:export-xdpi="800"
   inkscape:export-ydpi="800">
  <metadata
     id="metadata29">
    <rdf:RDF>
      <cc:Work
         rdf:about="">
        <dc:format>image/svg+xml</dc:format>
        <dc:type
           rdf:resource="http://purl.org/dc/dcmitype/StillImage" />
        <dc:title />
      </cc:Work>
    </rdf:RDF>
  </metadata>
  <defs
     id="defs27" />
  <sodipodi:namedview
     pagecolor="#ffffff"
     bordercolor="#666666"
     borderopacity="1"
     objecttolerance="10"
     gridtolerance="10"
     guidetolerance="10"
     inkscape:pageopacity="0"
     inkscape:pageshadow="2"
     inkscape:window-width="1024"
     inkscape:window-height="706"
     id="namedview25"
     showgrid="false"
     inkscape:zoom="1.0128755"
     inkscape:cx="261.48238"
     inkscape:cy="257.09165"
     inkscape:window-x="-8"
     inkscape:window-y="-8"
     inkscape:window-maximized="1"
     inkscape:current-layer="g15" />
  <g
     id="g15">
    <g
       id="g49"
       transform="matrix(1.0455474,0,0,0.99535742,-6.1724325,-3.0184413)">
      <path
         style="fill:#feebd0"
         d="M 201.5,450.3475 C 146.76413,446.01941 96.312421,420.2818 61.857094,379.1096 38.799577,351.55714 22.77344,318.9142 14.456137,282.56064 12.867873,275.6186 8.0431568,245.04971 8.0149562,241.75 8.0014932,240.17472 9.2230096,240.00564 20.25,240.05644 c 13.471392,0.0621 18.129498,1.16457 20.88672,4.94356 1.033164,1.41603 3.584294,10.41867 5.883768,20.76312 10.394806,46.76226 22.178365,69.60998 50.414524,97.75123 33.425188,33.31282 61.393568,46.27561 107.126248,49.65087 19.45618,1.43595 41.07956,0.10918 53.69401,-3.29457 11.95225,-3.22506 37.07114,-16.1828 49.74473,-25.66114 24.69849,-18.47153 45.70342,-42.83961 58.06803,-67.36546 7.48351,-14.84394 15.41167,-40.75446 16.49853,-53.91994 1.46054,-17.69185 5.67483,-21.94438 22.43344,-22.63695 12.10047,-0.50007 14.37284,0.50397 14.81032,6.54393 0.65422,9.03237 -8.10502,48.86222 -14.77155,67.16891 -8.14707,22.37231 -24.11663,49.55359 -39.49326,67.22023 C 342.90402,407.23366 309.275,429.22934 275,440.44319 c -24.38924,7.9795 -51.55222,11.63978 -73.5,9.90431 z m 9.16193,-65.0975 c -0.25085,-0.4125 -3.82802,-8.625 -7.94925,-18.25 -4.12123,-9.625 -18.56755,-41.90692 -32.10292,-71.73761 C 157.07439,265.43171 146,240.73988 146,240.39167 c 0,-0.34821 5.5125,-0.43808 12.25,-0.19972 16.17817,0.57236 18.85002,2.03811 26.99294,14.80805 4.73313,7.42262 9.1087,11.36694 16.20936,14.61178 7.5396,3.44542 18.21739,3.84282 26.47906,0.98548 7.24386,-2.50533 16.09035,-11.11244 18.60057,-18.09726 2.37785,-6.6165 5.71324,-10.0725 11.00757,-11.40563 4.78663,-1.20529 25.4605,-1.5168 25.4605,-0.38364 0,1.07183 -52.54986,116.30808 -58.22671,127.68498 C 218.37,381.22845 215.15889,386 212.92613,386 c -0.99445,0 -2.01334,-0.3375 -2.2642,-0.75 z M 10,233.61558 c 0,-6.5004 5.416697,-41.09653 8.007989,-51.14656 C 35.30172,115.39723 89.426833,57.078106 154.46188,35.441663 230.93199,10.000903 311.44669,33.91059 366.80775,98.5 c 23.72929,27.68481 39.75131,59.32339 46.08311,91 2.16,10.806 6.10914,39.02569 6.10914,43.65455 V 236 h -10.35078 c -12.39457,0 -15.8995,-1.05087 -18.71863,-5.6123 -1.16776,-1.88948 -4.49813,-12.98717 -7.40083,-24.66155 C 371.06471,159.61477 357.17769,133.74238 329.77337,107.43768 315.94469,94.163873 303.57007,85.514694 285.5,76.493026 261.20139,64.361694 246.96005,61.456403 212.5,61.600734 c -18.74574,0.07851 -25.14206,0.485788 -34.5807,2.201867 -46.1522,8.391123 -89.869388,43.093849 -113.374623,89.996829 -7.413621,14.79335 -11.404352,26.20781 -17.110545,48.94033 -2.932318,11.68187 -6.236002,23.28457 -7.34152,25.78378 C 37.344955,234.73507 34.035557,236 20.532119,236 10.10067,236 10,235.97721 10,233.61558 Z m 136.88784,0.25847 c 2.86146,-7.28362 66.98136,-147.01616 67.53689,-147.178953 1.38072,-0.404608 57.64595,123.596233 62.67576,138.128793 l 1.84263,5.3239 -2.346,2.346 c -4.21107,4.21107 -18.171,4.61516 -23.59712,0.68305 -1.375,-0.99641 -4.38145,-5.60632 -6.68101,-10.24425 C 239.40845,208.99486 230.28981,203 216,203 c -13.51004,0 -21.3506,4.94695 -32.5,20.50565 -7.24413,10.109 -10.75192,11.78719 -25.75592,12.32214 l -11.78891,0.42032 z"
         id="path63"
         inkscape:connector-curvature="0" />
      <path
         style="fill:#fdd89f"
         d="m 198.5,449.97772 c -22.94936,-1.8729 -48.96904,-9.17288 -71,-19.9195 C 72.104417,403.03648 31.460921,351.1153 15.925233,287.52388 13.519232,277.67552 8,245.20851 8,240.90351 c 0,-0.84597 3.794274,-1.03879 14.019398,-0.71247 20.242963,0.64604 18.646416,-1.30004 26.505892,32.30896 8.689857,37.15991 20.329337,60.92868 40.663013,83.03719 38.594487,41.96322 75.554977,58.40686 131.388017,58.45426 24.75906,0.021 39.28128,-3.05868 58.92368,-12.49581 20.07847,-9.64664 37.31031,-22.29389 54.03419,-39.65818 22.24794,-23.09991 34.98327,-44.63135 43.96878,-74.33746 3.21735,-10.63654 4.42621,-16.98255 6.12941,-32.17674 1.05261,-9.39027 7.48346,-14.18767 20.14744,-15.02992 9.96617,-0.66282 14.41639,0.4798 15.66187,4.02128 1.12304,3.19336 -1.11512,18.78051 -5.41127,37.68538 C 399.04557,347.93978 362.65443,397.18528 307,426.83654 c -32.42001,17.27255 -73.3756,26.00767 -108.5,23.14118 z m 12.51441,-65.46036 c -0.67677,-0.81545 -5.17213,-10.60295 -9.9897,-21.75 C 196.20715,351.62031 182.03422,320 169.52932,292.5 157.02442,265 146.56654,241.9375 146.28958,241.25 c -0.63405,-1.57391 15.99714,-1.71132 22.61047,-0.1868 6.43158,1.48262 9.60255,4.20009 15.6943,13.4498 6.2841,9.54176 12.51067,14.40198 21.84739,17.0532 10.79133,3.06427 23.84931,0.15834 32.3714,-7.20395 1.8302,-1.58112 5.18716,-6.65307 7.5,-11.33156 5.71103,-11.55245 7.18909,-12.34811 23.90599,-12.86896 7.02948,-0.21902 12.78087,-0.1385 12.78087,0.17892 0,0.89298 -50.37859,111.50157 -57.4821,126.20469 C 219.68537,378.61771 214.94805,386 213.03355,386 c -0.43376,0 -1.34238,-0.66719 -2.01914,-1.48264 z M 10,234.73884 C 10,229.46135 15.489055,193.70262 17.635036,185 26.227544,150.15473 44.969755,116.63618 70.977726,89.602001 101.48924,57.886582 136.51189,38.05074 177.23116,29.423063 c 16.63166,-3.523949 45.54463,-4.435196 63.06973,-1.987761 43.67986,6.100029 82.67406,26.250546 115.41827,59.643173 30.7285,31.337015 50.06037,66.623415 57.20795,104.421525 2.02927,10.73125 6.05141,39.15008 6.06572,42.85793 0.007,1.7224 -0.81673,1.83177 -11.28776,1.49937 -17.51176,-0.5559 -17.76046,-0.86291 -25.14241,-31.03801 -2.5135,-10.27439 -5.96919,-22.64939 -7.67931,-27.5 C 359.42587,133.47562 330.50722,99.730292 289.87328,78.120588 264.41094,64.579354 243.42425,60.307784 207.09014,61.271151 177.95814,62.043561 161.97753,65.467875 142.8795,75.030162 102.7119,95.141878 73.716456,127.36788 56.53035,171 c -2.058058,5.225 -6.178806,19.175 -9.157218,31 -8.503767,33.76196 -8.083437,33.20222 -25.396472,33.81949 C 11.78151,236.18299 10,236.02224 10,234.73884 Z m 137,0.30715 C 147,233.35897 213.57435,87.826016 214.42201,87.660025 214.87147,87.572011 221.06247,100.1 228.17979,115.5 263.06442,190.98109 278,225.17149 278,229.54797 c 0,6.30509 -17.30784,8.41476 -25.23088,3.07543 -2.21399,-1.49201 -3.88442,-3.99191 -5.50734,-8.24203 -7.17719,-18.79573 -27.24746,-27.11059 -45.31819,-18.77476 -6.66681,3.07532 -11.71335,7.83309 -17.49072,16.48989 -6.1203,9.17065 -10.46028,11.96015 -20.19754,12.98189 C 153.60532,236.1959 147,236.1835 147,235.04599 Z"
         id="path61"
         inkscape:connector-curvature="0" />
      <path
         style="fill:#fdc46f"
         d="m 198.5,449.97772 c -22.94936,-1.8729 -48.96904,-9.17288 -71,-19.9195 C 72.104417,403.03648 31.460921,351.1153 15.925233,287.52388 13.519232,277.67552 8,245.20851 8,240.90351 c 0,-0.84597 3.794274,-1.03879 14.019398,-0.71247 20.242963,0.64604 18.646416,-1.30004 26.505892,32.30896 8.689857,37.15991 20.329337,60.92868 40.663013,83.03719 38.594487,41.96322 75.554977,58.40686 131.388017,58.45426 24.75906,0.021 39.28128,-3.05868 58.92368,-12.49581 20.07847,-9.64664 37.31031,-22.29389 54.03419,-39.65818 22.24794,-23.09991 34.98327,-44.63135 43.96878,-74.33746 3.21735,-10.63654 4.42621,-16.98255 6.12941,-32.17674 1.05261,-9.39027 7.48346,-14.18767 20.14744,-15.02992 9.96617,-0.66282 14.41639,0.4798 15.66187,4.02128 1.12304,3.19336 -1.11512,18.78051 -5.41127,37.68538 C 399.04557,347.93978 362.65443,397.18528 307,426.83654 c -32.42001,17.27255 -73.3756,26.00767 -108.5,23.14118 z m 12.51441,-65.46036 c -0.67677,-0.81545 -5.17213,-10.60295 -9.9897,-21.75 C 196.20715,351.62031 182.03422,320 169.52932,292.5 157.02442,265 146.56654,241.9375 146.28958,241.25 c -0.63405,-1.57391 15.99714,-1.71132 22.61047,-0.1868 6.43158,1.48262 9.60255,4.20009 15.6943,13.4498 6.2841,9.54176 12.51067,14.40198 21.84739,17.0532 10.79133,3.06427 23.84931,0.15834 32.3714,-7.20395 1.8302,-1.58112 5.18716,-6.65307 7.5,-11.33156 5.71103,-11.55245 7.18909,-12.34811 23.90599,-12.86896 7.02948,-0.21902 12.78087,-0.1385 12.78087,0.17892 0,0.89298 -50.37859,111.50157 -57.4821,126.20469 C 219.68537,378.61771 214.94805,386 213.03355,386 c -0.43376,0 -1.34238,-0.66719 -2.01914,-1.48264 z M 10.446338,232.75 c 0.266443,-1.2375 1.213253,-8.325 2.104022,-15.75 3.515786,-29.30582 8.904496,-48.98523 19.304642,-70.5 C 63.572618,80.88582 123.10943,36.430013 191.3851,27.379762 c 16.88471,-2.238146 42.51683,-1.364562 59.29148,2.02075 40.40991,8.155173 77.03038,28.542277 106.33317,59.197097 23.7459,24.841531 39.65989,50.196801 48.8947,77.902391 5.0926,15.27847 7.44284,26.01461 10.06982,46 1.15671,8.8 2.36079,17.4625 2.67571,19.25 l 0.5726,3.25 H 407.3338 c -13.30572,0 -14.97035,-0.60696 -17.75425,-6.47361 -0.92465,-1.94855 -4.08159,-13.11573 -7.01541,-24.81596 -2.93383,-11.70022 -7.17831,-25.98967 -9.43218,-31.75432 C 355.0199,125.63138 323.63417,92.787005 277.41139,71.78692 260.50303,64.105055 241.02877,60.746571 213.5,60.764913 c -41.12577,0.0274 -64.82586,7.180753 -94.80362,28.614397 -29.872503,21.35838 -52.457121,52.16986 -65.036608,88.72739 -1.43961,4.18368 -4.89637,16.731 -7.681689,27.88294 -2.785319,11.15193 -5.717266,21.5391 -6.515438,23.0826 C 36.76394,234.29096 34.646268,235 21.758442,235 10.048115,235 9.9654367,234.98356 10.446338,232.75 Z m 137.918092,-1 c 2.39902,-5.60407 64.59291,-141.851358 65.4562,-143.393959 1.10752,-1.979041 46.96176,97.064469 60.18406,129.995449 4.66554,11.6198 4.65674,12.93593 -0.10285,15.38377 -3.54375,1.82253 -15.41781,1.58826 -19.57886,-0.38629 -2.83747,-1.34646 -4.17899,-3.14503 -7.27235,-9.75 -6.26761,-13.38267 -15.52832,-20.30573 -28.56165,-21.35192 -12.64192,-1.01477 -23.7712,4.70956 -31.74149,16.3262 -6.13738,8.94518 -11.52563,13.99387 -16.37091,15.33922 -2.13212,0.59201 -8.27012,1.07889 -13.64,1.08195 l -9.76342,0.006 1.39127,-3.25 z"
         id="path59"
         inkscape:connector-curvature="0" />
      <path
         style="fill:#fdbb57"
         d="m 198.5,449.97772 c -22.94936,-1.8729 -48.96904,-9.17288 -71,-19.9195 C 72.104417,403.03648 31.460921,351.1153 15.925233,287.52388 13.519232,277.67552 8,245.20851 8,240.90351 c 0,-0.84597 3.794274,-1.03879 14.019398,-0.71247 20.242963,0.64604 18.646416,-1.30004 26.505892,32.30896 8.689857,37.15991 20.329337,60.92868 40.663013,83.03719 38.594487,41.96322 75.554977,58.40686 131.388017,58.45426 24.75906,0.021 39.28128,-3.05868 58.92368,-12.49581 20.07847,-9.64664 37.31031,-22.29389 54.03419,-39.65818 22.24794,-23.09991 34.98327,-44.63135 43.96878,-74.33746 3.21735,-10.63654 4.42621,-16.98255 6.12941,-32.17674 1.05261,-9.39027 7.48346,-14.18767 20.14744,-15.02992 9.96617,-0.66282 14.41639,0.4798 15.66187,4.02128 1.12304,3.19336 -1.11512,18.78051 -5.41127,37.68538 C 399.04557,347.93978 362.65443,397.18528 307,426.83654 c -32.42001,17.27255 -73.3756,26.00767 -108.5,23.14118 z m 12.51441,-65.46036 c -0.67677,-0.81545 -5.17213,-10.60295 -9.9897,-21.75 C 196.20715,351.62031 182.03422,320 169.52932,292.5 157.02442,265 146.56654,241.9375 146.28958,241.25 c -0.63405,-1.57391 15.99714,-1.71132 22.61047,-0.1868 6.43158,1.48262 9.60255,4.20009 15.6943,13.4498 6.2841,9.54176 12.51067,14.40198 21.84739,17.0532 10.79133,3.06427 23.84931,0.15834 32.3714,-7.20395 1.8302,-1.58112 5.18716,-6.65307 7.5,-11.33156 5.71103,-11.55245 7.18909,-12.34811 23.90599,-12.86896 7.02948,-0.21902 12.78087,-0.1385 12.78087,0.17892 0,0.89298 -50.37859,111.50157 -57.4821,126.20469 C 219.68537,378.61771 214.94805,386 213.03355,386 c -0.43376,0 -1.34238,-0.66719 -2.01914,-1.48264 z M 12.661052,217.25 C 15.604147,194.58299 18.132298,182.73875 23.106866,168.31196 41.132496,116.03566 81.531549,70.031844 130.5,46.019625 171.69459,25.819406 217.71252,20.865757 261,31.971816 c 25.22229,6.471161 50.48025,18.800449 71.5,34.901637 33.47359,25.640863 61.63846,64.239267 73.8957,101.269997 4.33284,13.09008 6.90326,25.52483 9.58247,46.35655 1.13178,8.8 2.28327,17.0125 2.55886,18.25 0.49597,2.22707 0.38924,2.25 -10.47092,2.25 -6.15982,0 -12.08264,-0.50604 -13.5043,-1.15379 -3.84445,-1.75165 -6.07626,-7.5247 -11.95449,-30.92286 C 374.89029,172.20591 367.7678,155.18371 354.14659,134.90447 330.40329,99.555493 290.84316,71.696965 253.44817,63.99193 225.31396,58.195029 187.53719,59.280451 162.18902,66.614035 140.92634,72.765629 117.06209,87.82255 97.470004,107.44789 82.670251,122.27276 73.77042,134.26122 65.138368,151 56.948976,166.8804 52.65223,178.9547 46.300139,203.93737 40.358236,227.30676 38.513251,231.98949 34.533156,233.80294 33.012644,234.49573 27.366965,235 21.131139,235 H 10.356384 Z m 135.130198,16.11093 c 0.53919,-1.02351 15.7158,-34.26093 33.72579,-73.86093 18.01,-39.6 32.81097,-72.087083 32.89106,-72.193519 0.20088,-0.266977 26.31818,56.384209 41.11994,89.193519 15.17938,33.64631 22.76903,52.28346 22.05222,54.15144 -1.49003,3.88295 -15.29041,5.7682 -21.86238,2.98658 -4.24076,-1.79493 -5.91669,-3.92352 -8.7694,-11.13802 -2.82738,-7.15041 -9.25831,-14.00918 -16.44848,-17.54277 -4.24805,-2.08769 -6.4287,-2.4566 -14.5,-2.45304 -15.17609,0.007 -20.32104,3.27286 -33.74604,21.42299 -6.66012,9.00425 -9.8715,10.46004 -24.09851,10.9244 -10.80483,0.35266 -11.29791,0.28174 -10.3642,-1.49065 z"
         id="path57"
         inkscape:connector-curvature="0" />
      <path
         style="fill:#9d9d9d"
         d="m 198.5,449.97772 c -22.94936,-1.8729 -48.96904,-9.17288 -71,-19.9195 C 72.104417,403.03648 31.460921,351.1153 15.925233,287.52388 13.519232,277.67552 8,245.20851 8,240.90351 c 0,-0.84597 3.794274,-1.03879 14.019398,-0.71247 20.242963,0.64604 18.646416,-1.30004 26.505892,32.30896 8.689857,37.15991 20.329337,60.92868 40.663013,83.03719 38.594487,41.96322 75.554977,58.40686 131.388017,58.45426 24.75906,0.021 39.28128,-3.05868 58.92368,-12.49581 20.07847,-9.64664 37.31031,-22.29389 54.03419,-39.65818 22.24794,-23.09991 34.98327,-44.63135 43.96878,-74.33746 3.21735,-10.63654 4.42621,-16.98255 6.12941,-32.17674 1.05261,-9.39027 7.48346,-14.18767 20.14744,-15.02992 9.96617,-0.66282 14.41639,0.4798 15.66187,4.02128 1.12304,3.19336 -1.11512,18.78051 -5.41127,37.68538 C 399.04557,347.93978 362.65443,397.18528 307,426.83654 c -32.42001,17.27255 -73.3756,26.00767 -108.5,23.14118 z m 12.51441,-65.46036 c -0.67677,-0.81545 -5.17213,-10.60295 -9.9897,-21.75 C 196.20715,351.62031 182.03422,320 169.52932,292.5 157.02442,265 146.56654,241.9375 146.28958,241.25 c -0.63405,-1.57391 15.99714,-1.71132 22.61047,-0.1868 6.43158,1.48262 9.60255,4.20009 15.6943,13.4498 6.2841,9.54176 12.51067,14.40198 21.84739,17.0532 10.79133,3.06427 23.84931,0.15834 32.3714,-7.20395 1.8302,-1.58112 5.18716,-6.65307 7.5,-11.33156 5.71103,-11.55245 7.18909,-12.34811 23.90599,-12.86896 7.02948,-0.21902 12.78087,-0.1385 12.78087,0.17892 0,0.89298 -50.37859,111.50157 -57.4821,126.20469 C 219.68537,378.61771 214.94805,386 213.03355,386 c -0.43376,0 -1.34238,-0.66719 -2.01914,-1.48264 z"
         id="path55"
         inkscape:connector-curvature="0" />
      <path
         style="fill:#5f5f5f"
         d="M 190,448.91039 C 154.77904,444.38041 117.40424,428.23553 89,405.28119 78.570961,396.85316 62.782257,380.29735 54.399883,369 30.886686,337.31006 16.971688,302.4167 11.029671,260.24449 9.8870554,252.13502 8.7293724,244.4875 8.457042,243.25 7.9625313,241.00289 7.9793078,241 21.530608,241 c 15.062572,0 18.380766,0.93077 20.330559,5.70284 0.628582,1.53844 2.512542,9.09716 4.186578,16.79716 8.989257,41.34754 19.175754,64.20563 39.302269,88.19273 27.872266,33.2186 60.386376,52.85127 99.149986,59.86875 12.21491,2.21129 46.35526,3.07342 59.17042,1.49419 43.9474,-5.4157 97.10084,-46.67974 122.15,-94.82738 8.28639,-15.9275 15.7721,-40.17239 17.13538,-55.49847 C 384.53764,244.94654 388.84801,241 406.68884,241 c 9.74956,0 10.34452,0.12128 11.84742,2.415 1.36759,2.0872 1.42887,3.54633 0.45145,10.75 -4.93052,36.33838 -17.49792,73.38625 -33.79915,99.63771 -31.82402,51.24931 -85.83874,86.23612 -146.11605,94.64335 -11.91258,1.66152 -37.85566,1.90699 -49.07251,0.46433 z M 211.22173,384.75 c -0.56273,-0.6875 -4.39326,-9.125 -8.51228,-18.75 -4.11902,-9.625 -18.3387,-41.40927 -31.59929,-70.6317 C 157.84957,266.14586 147,241.95836 147,241.6183 147,241.27823 152.03292,241 158.18428,241 c 15.33814,0 18.18374,1.40057 25.31953,12.46194 6.0081,9.31331 9.68371,12.7687 17.49619,16.4479 4.71299,2.21953 6.85938,2.59 15,2.58907 8.54236,-9.7e-4 10.08987,-0.29956 15.35166,-2.96204 6.90716,-3.49504 12.86294,-9.87207 15.28825,-16.36959 C 250.73876,242.1863 253.02459,241 270.08451,241 c 11.09577,0 12.10502,0.15168 11.64423,1.75 -0.78171,2.71145 -52.8391,116.54558 -58.19259,127.25 -4.83736,9.6724 -8.97584,16 -10.4646,16 -0.45466,0 -1.28708,-0.5625 -1.84982,-1.25 z"
         id="path53"
         inkscape:connector-curvature="0" />
      <path
         style="fill:#000000"
         d="M 197,449.33242 C 117.18271,441.40753 50.625393,387.92825 23.128481,309.62539 16.781427,291.55091 14.423496,281.57955 10.966756,258.19515 8.1201914,238.93851 6.8904929,240.98283 21.25,241.09968 c 6.7375,0.0548 13.334433,0.40304 14.659852,0.7738 4.39222,1.22867 6.155559,5.26455 10.158024,23.24938 10.52804,47.3071 24.111741,73.26689 53.059695,101.40228 14.494169,14.08732 27.003659,23.3313 41.748609,30.85043 C 165.12999,409.74371 185.66755,414 221.09278,414 c 28.67198,0 38.02051,-1.95397 59.40722,-12.41693 39.51384,-19.33124 74.57576,-55.72952 90.58016,-94.03254 5.69711,-13.63479 10.93242,-32.63785 11.98986,-43.52067 1.12775,-11.60641 2.1723,-14.92978 5.77837,-18.38461 C 392.55903,242.09024 396.7744,241 406.80914,241 417.88345,241 419,241.67412 419,248.36029 c 0,10.92365 -6.8363,42.27658 -13.35824,61.26408 -12.53074,36.48114 -34.06596,68.51459 -61.53216,91.52855 -32.07117,26.87248 -71.33583,43.63088 -111.96555,47.78759 -9.67818,0.99015 -27.15576,1.18505 -35.14405,0.39191 z M 204.50867,369.25 c -6.0234,-14.0254 -42.71281,-95.54458 -53.39635,-118.63985 -2.26178,-4.88941 -4.11232,-9.05191 -4.11232,-9.25 0,-0.19808 4.8375,-0.35027 10.75,-0.33819 15.42713,0.0315 18.82157,1.83121 26.58562,14.09543 4.68961,7.40778 11.5573,13.32113 18.51729,15.94412 8.08662,3.04757 21.45524,2.43246 28.75469,-1.32306 6.55232,-3.37112 13.79427,-11.42156 15.85458,-17.62458 1.75282,-5.27724 4.50389,-8.39945 8.85292,-10.04726 C 259.02465,241.03999 282,240.50748 282,241.4713 282,242.13855 231.26429,353.31192 225.16937,366 c -6.23725,12.98439 -10.11778,19 -12.25645,19 -1.16453,0 -3.60182,-4.5676 -8.40425,-15.75 z"
         id="path51"
         inkscape:connector-curvature="0" />
    </g>
  </g>
</svg>
