<?xml version="1.0" encoding="UTF-8" standalone="no"?>
<!-- Created with Inkscape (http://www.inkscape.org/) -->

<svg
   xmlns:osb="http://www.openswatchbook.org/uri/2009/osb"
   xmlns:dc="http://purl.org/dc/elements/1.1/"
   xmlns:cc="http://creativecommons.org/ns#"
   xmlns:rdf="http://www.w3.org/1999/02/22-rdf-syntax-ns#"
   xmlns:svg="http://www.w3.org/2000/svg"
   xmlns="http://www.w3.org/2000/svg"
   xmlns:xlink="http://www.w3.org/1999/xlink"
   xmlns:sodipodi="http://sodipodi.sourceforge.net/DTD/sodipodi-0.dtd"
   xmlns:inkscape="http://www.inkscape.org/namespaces/inkscape"
   version="1.1"
   id="svg10"
   width="452"
   height="142"
   viewBox="0 0 452 142"
   sodipodi:docname="logo.svg"
   inkscape:version="0.92.3 (2405546, 2018-03-11)"
   inkscape:export-filename="C:\xampp\htdocs\waycoding-novo\img\logo\logo2.png"
   inkscape:export-xdpi="800"
   inkscape:export-ydpi="800">
  <metadata
     id="metadata16">
    <rdf:RDF>
      <cc:Work
         rdf:about="">
        <dc:format>image/svg+xml</dc:format>
        <dc:type
           rdf:resource="http://purl.org/dc/dcmitype/StillImage" />
        <dc:title></dc:title>
      </cc:Work>
    </rdf:RDF>
  </metadata>
  <defs
     id="defs14">
    <linearGradient
       id="linearGradient2365"
       osb:paint="solid">
      <stop
         style="stop-color:#333333;stop-opacity:1;"
         offset="0"
         id="stop2363" />
    </linearGradient>
    <linearGradient
       id="linearGradient6597"
       osb:paint="solid">
      <stop
         style="stop-color:#806600;stop-opacity:1;"
         offset="0"
         id="stop6595" />
    </linearGradient>
    <inkscape:perspective
       sodipodi:type="inkscape:persp3d"
       inkscape:vp_x="0 : 71 : 1"
       inkscape:vp_y="0 : 1000 : 0"
       inkscape:vp_z="452 : 71 : 1"
       inkscape:persp3d-origin="226 : 47.333333 : 1"
       id="perspective4585" />
    <linearGradient
       inkscape:collect="always"
       xlink:href="#linearGradient6597"
       id="linearGradient875"
       gradientUnits="userSpaceOnUse"
       x1="95.556274"
       y1="68.024445"
       x2="437.15002"
       y2="68.024445" />
    <linearGradient
       inkscape:collect="always"
       xlink:href="#linearGradient6597"
       id="linearGradient877"
       gradientUnits="userSpaceOnUse"
       x1="95.556274"
       y1="68.024445"
       x2="437.15002"
       y2="68.024445" />
    <linearGradient
       inkscape:collect="always"
       xlink:href="#linearGradient6597"
       id="linearGradient879"
       gradientUnits="userSpaceOnUse"
       x1="95.556274"
       y1="68.024445"
       x2="437.15002"
       y2="68.024445" />
  </defs>
  <sodipodi:namedview
     pagecolor="#ffffff"
     bordercolor="#666666"
     borderopacity="1"
     objecttolerance="10"
     gridtolerance="10"
     guidetolerance="10"
     inkscape:pageopacity="0"
     inkscape:pageshadow="2"
     inkscape:window-width="1360"
     inkscape:window-height="706"
     id="namedview12"
     showgrid="false"
     inkscape:zoom="1.5273507"
     inkscape:cx="269.89235"
     inkscape:cy="37.27535"
     inkscape:window-x="-8"
     inkscape:window-y="-8"
     inkscape:window-maximized="1"
     inkscape:current-layer="g2575" />
  <g
     id="g6655">
    <g
       id="g859">
      <g
         id="text3744"
         style="font-style:normal;font-weight:normal;font-size:40px;line-height:1.25;font-family:sans-serif;letter-spacing:0px;word-spacing:0px;fill:#000000;fill-opacity:1;stroke:none"
         aria-label=" " />
      <g
         id="g2575"
         transform="matrix(1.0967344,0,0,1.1266606,-16.492787,-2.7438833)">
        <g
           id="g30"
           inkscape:export-xdpi="194.30096"
           inkscape:export-ydpi="194.30096">
          <g
             id="g24">
            <g
               transform="matrix(1.9447473,0,0,1.9548059,-194.65626,-68.649361)"
               id="g2551">
              <path
                 inkscape:connector-curvature="0"
                 id="path2559"
                 d="m 302.87411,86.556147 c -0.33837,-0.823236 -0.5397,-2.162203 -0.44741,-2.975483 0.15484,-1.364408 0.35297,-1.490732 2.56386,-1.634633 2.06337,-0.1343 2.4441,-0.0034 2.74215,0.943006 0.2201,0.698882 0.6249,0.991142 1.11193,0.802797 0.4212,-0.162891 1.32459,-0.296162 2.00753,-0.296162 0.98216,0 1.2417,-0.270405 1.2417,-1.293688 0,-1.269996 -0.0738,-1.293688 -4.02825,-1.293688 -5.41479,0 -5.51808,-0.140399 -5.88109,-7.993675 -0.25962,-5.616549 -0.19198,-6.315271 0.73891,-7.632759 0.99033,-1.401614 1.17706,-1.450249 5.56825,-1.450249 3.16701,0 4.61486,0.195973 4.7789,0.646844 0.18828,0.517476 0.37142,0.517476 0.91571,0 0.37419,-0.355764 1.32734,-0.646844 2.1181,-0.646844 h 1.43774 v 11.304253 c 0,10.294186 -0.0839,11.380775 -0.93902,12.160667 -0.76441,0.697169 -2.08956,0.856416 -7.12641,0.856416 h -6.1874 z m 9.11485,-14.156823 0.15183,-3.492958 h -2.33412 -2.33411 v 3.277343 c 0,1.802539 0.16504,3.443668 0.36675,3.646954 0.20172,0.203286 1.18375,0.300313 2.18229,0.215615 l 1.81553,-0.153997 z m -92.19297,7.777396 c -1.11301,-0.540957 -1.15533,-0.815824 -1.15533,-7.502387 0,-3.817472 0.23919,-7.391277 0.53154,-7.941788 0.48109,-0.905914 1.12829,-1.000932 6.81772,-1.000932 7.43692,0 8.57279,0.467305 8.56158,3.522301 -0.0138,3.774354 -0.35432,4.239828 -3.10122,4.239828 -2.41695,0 -2.47875,-0.03943 -2.63587,-1.681795 -0.15213,-1.590084 -0.27291,-1.681794 -2.21483,-1.681794 h -2.05391 v 4.139802 4.139802 l 2.18228,0.159122 c 1.70088,0.124021 2.18229,-0.01867 2.18229,-0.646844 0,-0.620797 0.58238,-0.805966 2.53486,-0.805966 2.48312,0 2.53829,0.03433 2.70263,1.681794 0.0923,0.924987 -0.0457,2.205738 -0.30662,2.846114 -0.45626,1.119798 -0.71176,1.16298 -6.6821,1.129296 -3.41423,-0.01926 -6.72759,-0.287711 -7.36302,-0.596553 z m 18.66177,-0.04516 c -0.76976,-0.567241 -0.96403,-1.742828 -1.2007,-7.265673 -0.40357,-9.417291 -0.63837,-9.134274 7.57822,-9.134274 8.4514,0 8.20848,-0.241682 8.20848,8.166633 0,3.659029 -0.24836,6.823324 -0.5959,7.592013 -0.59096,1.307113 -0.6476,1.318037 -6.83383,1.318037 -4.32683,0 -6.51927,-0.20733 -7.15627,-0.676737 z m 8.93773,-7.602868 v -4.139801 h -2.31065 -2.31066 v 3.13887 c 0,4.106169 0.57199,5.140733 2.8422,5.140733 h 1.77911 z m 9.84561,7.081933 c -1.02367,-1.09813 -1.11646,-1.736593 -1.11646,-7.681927 0,-8.088408 0.0424,-8.144655 5.81744,-7.715569 2.21114,0.164288 4.11743,0.200777 4.2362,0.08109 0.11877,-0.11969 0.21594,-1.692423 0.21594,-3.494962 v -3.277343 h 2.82414 2.82413 v 11.643192 11.643193 h -1.75439 c -0.96491,0 -1.86029,-0.29108 -1.98973,-0.646844 -0.18827,-0.517475 -0.37141,-0.517475 -0.9157,0 -0.4293,0.408151 -2.22001,0.646844 -4.85273,0.646844 -3.69742,0 -4.29946,-0.136334 -5.28884,-1.197671 z m 8.89638,-7.081933 v -3.363589 h -2.05392 -2.05391 l -0.15253,3.523902 -0.15254,3.523901 2.20646,-0.160312 2.20644,-0.160313 z m 8.47241,-0.258737 v -8.538342 h 3.01231 3.01232 l -0.20157,3.751696 c -0.11086,2.063432 -0.33264,5.905686 -0.49284,8.538341 l -0.29127,4.786646 h -2.51947 -2.51948 z m 8.72914,0.556407 v -7.981935 l 7.83056,0.09044 7.83056,0.09044 0.14173,7.568885 c 0.1403,7.492427 0.12993,7.572071 -1.02695,7.884431 -0.64279,0.173551 -1.91966,0.318727 -2.8375,0.322613 l -1.66881,0.0071 v -5.950965 -5.950965 h -2.31066 -2.31065 v 5.950965 5.950965 h -2.82414 -2.82414 z M 109.86858,65.15467 c 0.59682,-4.499237 3.01591,-9.071282 6.6459,-12.560648 8.93095,-8.584984 22.40949,-8.253931 30.94088,0.759955 3.41704,3.61029 5.27338,7.344774 5.88263,11.834376 l 0.43432,3.200538 h -1.60509 c -1.56267,0 -1.62709,-0.09452 -2.4382,-3.577537 -1.50713,-6.471878 -5.47144,-11.154971 -11.61436,-13.720192 -3.50712,-1.464538 -10.25878,-1.397425 -13.65653,0.135748 -5.68223,2.564007 -9.50548,7.272891 -10.95346,13.490755 -0.83445,3.583262 -0.8934,3.671226 -2.46002,3.671226 h -1.60509 z m 18.04023,-4.604952 3.68705,-7.839173 3.43479,7.192329 c 1.88914,3.955781 3.4511,7.483408 3.47103,7.839172 0.0212,0.378729 -0.58794,0.646845 -1.46961,0.646845 -1.06147,0 -1.6033,-0.309481 -1.83612,-1.048737 -0.92492,-2.936848 -4.99497,-3.335667 -6.66395,-0.652991 -0.80547,1.294692 -1.39583,1.666265 -2.67206,1.681794 l -1.63817,0.01993 z m 147.85641,2.321706 c -0.39262,-0.159656 -0.64185,-1.259453 -0.64185,-2.832303 v -2.571296 l 2.69576,0.156411 2.69577,0.156412 -0.16565,2.062148 c -0.0911,1.134182 -0.40823,2.356717 -0.70472,2.716745 -0.53324,0.647514 -2.63786,0.816719 -3.87931,0.311883 z"
                 style="fill:#febc58;stroke-width:0.51547331" />
              <path
                 inkscape:connector-curvature="0"
                 id="path2553"
                 d="m 127.96213,90.610359 c -9.74827,-1.699074 -16.97464,-9.360795 -18.39642,-19.504724 l -0.30825,-2.199269 h 1.79346 c 1.54391,0 1.83379,0.198009 2.08333,1.423057 1.22801,6.028676 2.70688,8.841024 6.41657,12.202315 3.53052,3.198943 7.3318,4.593834 12.49242,4.584126 3.46516,-0.0065 4.48765,-0.233811 7.27687,-1.617628 4.09945,-2.033859 7.99055,-6.210452 9.45113,-10.14457 0.58476,-1.575089 1.06321,-3.301744 1.06321,-3.837013 0,-1.966685 0.589,-2.610287 2.38886,-2.610287 1.75506,0 1.7636,0.01148 1.44351,1.940532 -0.72358,4.360684 -1.90966,7.500871 -3.99067,10.56548 -4.65461,6.854604 -13.5471,10.621431 -21.71402,9.197981 z m 72.99261,-3.707504 c -0.83235,-1.197598 -1.02119,-2.839888 -0.48766,-4.241073 0.42505,-1.116275 4.72852,-1.151635 5.15091,-0.04232 0.20066,0.52697 1.01988,0.776213 2.55128,0.776213 2.06378,10e-7 2.25572,-0.110078 2.25572,-1.293687 0,-1.269488 -0.075,-1.293688 -4.00969,-1.293688 -2.40799,0 -4.35231,-0.258387 -4.8674,-0.646844 -0.70611,-0.532519 -0.91892,-2.041608 -1.20405,-8.538341 l -0.34635,-7.891498 h 2.09087 c 3.72882,0 3.71531,-0.02279 3.71531,6.265067 v 5.636864 h 2.31065 2.31066 v -5.329995 c 0,-3.455585 0.21669,-5.548373 0.61618,-5.950965 0.33889,-0.341534 1.61952,-0.620971 2.84585,-0.620971 h 2.22968 l -0.36029,11.513824 c -0.30122,9.626473 -0.49417,11.617159 -1.17704,12.144213 -0.53148,0.410197 -2.91401,0.636132 -6.82103,0.646844 -5.63197,0.01542 -6.05383,-0.05486 -6.8036,-1.133639 z m -70.27019,-4.049824 c -0.42066,-0.982299 -2.05194,-4.522148 -3.62507,-7.866331 l -2.86024,-6.080334 1.64943,0.0033 c 1.28006,0.0025 1.83854,0.338293 2.4939,1.49933 1.56505,2.77263 5.92824,2.483678 6.85338,-0.453866 0.2462,-0.781727 0.77362,-1.048724 2.07166,-1.048724 h 1.74138 l -3.25878,6.928069 c -4.56656,9.708371 -4.15688,9.140742 -5.06566,7.018596 z m 29.12754,-2.950317 c -0.22099,-0.498069 -0.50013,-5.737506 -0.6203,-11.643192 L 158.9733,57.521911 h 2.81027 2.81028 l 0.37744,7.888125 0.37745,7.888125 1.65973,-1.99231 1.65973,-1.99231 1.56599,1.914617 1.56601,1.914617 0.30081,-3.541262 c 0.16545,-1.947693 0.44619,-5.462388 0.62385,-7.810432 l 0.32304,-4.26917 h 2.84484 2.84485 l -0.37318,10.994666 c -0.21263,6.264702 -0.60293,11.273666 -0.90724,11.643193 -0.29374,0.356689 -1.62968,0.648526 -2.96876,0.648526 -2.26093,0 -2.53628,-0.14773 -3.85806,-2.069901 -0.78285,-1.138445 -1.59158,-2.069901 -1.79717,-2.069901 -0.2056,0 -1.01433,0.931456 -1.79718,2.069901 -1.355,1.970482 -1.55302,2.069901 -4.12273,2.069901 -2.07544,0 -2.79224,-0.209317 -3.10118,-0.905582 z m 22.70787,-0.04075 c -0.62364,-0.69447 -0.8498,-1.92912 -0.8498,-4.63907 0,-4.498676 0.32711,-4.764107 5.87125,-4.764107 3.82593,0 3.88485,-0.02009 3.88485,-1.32491 V 67.80897 l -4.87805,0.360859 c -4.71994,0.349162 -4.87805,0.325803 -4.87805,-0.720642 0,-0.594825 0.26815,-1.674617 0.5959,-2.399537 0.59096,-1.307113 0.64759,-1.318037 6.83383,-1.318037 4.49015,0 6.50916,0.199878 7.20599,0.713376 0.85578,0.630637 0.99365,1.620935 1.18864,8.538342 l 0.22058,7.824965 h -2.11746 c -1.30459,0 -2.11746,-0.238383 -2.11746,-0.62097 0,-0.482977 -0.13693,-0.482977 -0.61618,0 -0.38421,0.387204 -2.28726,0.62097 -5.05521,0.62097 -3.64835,0 -4.5904,-0.168561 -5.28883,-0.946328 z m 9.41978,-5.004637 c 0,-1.188276 -0.18828,-1.293688 -2.31066,-1.293688 -2.12238,0 -2.31065,0.105412 -2.31065,1.293688 0,1.188276 0.18827,1.293688 2.31065,1.293688 2.12238,0 2.31066,-0.105412 2.31066,-1.293688 z"
                 style="fill:#010101;stroke-width:0.51547331" />
            </g>
          </g>
        </g>
      </g>
    </g>
  </g>
</svg>
