<?xml version="1.0" encoding="UTF-8" standalone="no"?>
<!-- Created with Inkscape (http://www.inkscape.org/) -->

<svg
   xmlns:osb="http://www.openswatchbook.org/uri/2009/osb"
   xmlns:dc="http://purl.org/dc/elements/1.1/"
   xmlns:cc="http://creativecommons.org/ns#"
   xmlns:rdf="http://www.w3.org/1999/02/22-rdf-syntax-ns#"
   xmlns:svg="http://www.w3.org/2000/svg"
   xmlns="http://www.w3.org/2000/svg"
   xmlns:xlink="http://www.w3.org/1999/xlink"
   xmlns:sodipodi="http://sodipodi.sourceforge.net/DTD/sodipodi-0.dtd"
   xmlns:inkscape="http://www.inkscape.org/namespaces/inkscape"
   version="1.1"
   id="svg10"
   width="452"
   height="142"
   viewBox="0 0 452 142"
   sodipodi:docname="texto-logo.svg"
   inkscape:version="0.92.3 (2405546, 2018-03-11)"
   inkscape:export-filename="C:\xampp\htdocs\waycoding-novo\img\logo\logo2.png"
   inkscape:export-xdpi="800"
   inkscape:export-ydpi="800">
  <metadata
     id="metadata16">
    <rdf:RDF>
      <cc:Work
         rdf:about="">
        <dc:format>image/svg+xml</dc:format>
        <dc:type
           rdf:resource="http://purl.org/dc/dcmitype/StillImage" />
        <dc:title></dc:title>
      </cc:Work>
    </rdf:RDF>
  </metadata>
  <defs
     id="defs14">
    <linearGradient
       id="linearGradient2365"
       osb:paint="solid">
      <stop
         style="stop-color:#333333;stop-opacity:1;"
         offset="0"
         id="stop2363" />
    </linearGradient>
    <linearGradient
       id="linearGradient6597"
       osb:paint="solid">
      <stop
         style="stop-color:#806600;stop-opacity:1;"
         offset="0"
         id="stop6595" />
    </linearGradient>
    <inkscape:perspective
       sodipodi:type="inkscape:persp3d"
       inkscape:vp_x="0 : 71 : 1"
       inkscape:vp_y="0 : 1000 : 0"
       inkscape:vp_z="452 : 71 : 1"
       inkscape:persp3d-origin="226 : 47.333333 : 1"
       id="perspective4585" />
    <linearGradient
       inkscape:collect="always"
       xlink:href="#linearGradient6597"
       id="linearGradient875"
       gradientUnits="userSpaceOnUse"
       x1="95.556274"
       y1="68.024445"
       x2="437.15002"
       y2="68.024445" />
    <linearGradient
       inkscape:collect="always"
       xlink:href="#linearGradient6597"
       id="linearGradient877"
       gradientUnits="userSpaceOnUse"
       x1="95.556274"
       y1="68.024445"
       x2="437.15002"
       y2="68.024445" />
    <linearGradient
       inkscape:collect="always"
       xlink:href="#linearGradient6597"
       id="linearGradient879"
       gradientUnits="userSpaceOnUse"
       x1="95.556274"
       y1="68.024445"
       x2="437.15002"
       y2="68.024445" />
  </defs>
  <sodipodi:namedview
     pagecolor="#ffffff"
     bordercolor="#666666"
     borderopacity="1"
     objecttolerance="10"
     gridtolerance="10"
     guidetolerance="10"
     inkscape:pageopacity="0"
     inkscape:pageshadow="2"
     inkscape:window-width="1360"
     inkscape:window-height="706"
     id="namedview12"
     showgrid="false"
     inkscape:zoom="3.0547014"
     inkscape:cx="183.45058"
     inkscape:cy="66.678224"
     inkscape:window-x="-8"
     inkscape:window-y="-8"
     inkscape:window-maximized="1"
     inkscape:current-layer="g2551" />
  <g
     id="g6655">
    <g
       id="g859">
      <g
         id="text3744"
         style="font-style:normal;font-weight:normal;font-size:40px;line-height:1.25;font-family:sans-serif;letter-spacing:0px;word-spacing:0px;fill:#000000;fill-opacity:1;stroke:none"
         aria-label=" " />
      <g
         id="g2575"
         transform="matrix(1.0967344,0,0,1.1266606,-16.492787,-2.7438833)">
        <g
           id="g30"
           inkscape:export-xdpi="194.30096"
           inkscape:export-ydpi="194.30096">
          <g
             id="g24">
            <g
               transform="matrix(1.9447473,0,0,1.9548059,-194.65626,-68.649361)"
               id="g2551">
              <g
                 id="g3824"
                 transform="translate(-50.650127,-4.6078272)">
                <g
                   id="g3814">
                  <g
                     id="g3802">
                    <g
                       id="g3794">
                      <g
                         id="g3787">
                        <g
                           id="g3781">
                          <g
                             id="g3776">
                            <g
                               id="g3772">
                              <path
                                 id="path2559"
                                 style="fill:#febc58;stroke-width:1.11721528"
                                 d="m 356.82422,46.478516 v 5.664062 c 0,3.464049 0.53173,5.884701 1.36914,6.236328 2.64785,1.111852 7.1361,0.74054 8.27344,-0.685547 0.63237,-0.792926 1.3096,-3.486449 1.5039,-5.984375 l 0.35157,-4.541015 -5.74805,-0.34375 z m -18.61914,0.11914 v 7.21875 c 0,3.969917 -0.20762,7.43366 -0.46094,7.697266 -0.25332,0.263599 -4.31908,0.182141 -9.03516,-0.179688 -12.31741,-0.94502 -12.40625,-0.819791 -12.40625,16.994141 0,13.09402 0.19751,14.499444 2.38086,16.917969 2.11022,2.337491 3.39318,2.638672 11.2793,2.638672 5.61525,0 9.43592,-0.526869 10.35156,-1.425782 1.1609,-1.139688 1.55157,-1.139688 1.95313,0 0.27608,0.783536 2.18416,1.425782 4.24219,1.425782 h 3.74218 V 72.240234 46.597656 h -6.02343 z m -295.429689,6.794922 -0.396485,0.871094 c 0.09106,-0.06002 0.182392,-0.119637 0.273438,-0.179688 0.02982,-0.04093 0.0579,-0.08218 0.08789,-0.123046 0.0043,-0.103495 0.0028,-0.207128 0.0098,-0.310547 0.0058,-0.08617 0.01656,-0.171931 0.02539,-0.257813 z m 209.253909,6.88086 c -12.13482,0 -13.51687,0.20989 -14.54297,2.205078 -0.62355,1.212447 -1.13281,9.084576 -1.13281,17.492187 0,14.726505 0.0909,15.330079 2.46484,16.521485 1.35529,0.680194 8.42101,1.272034 15.70312,1.314453 12.73397,0.07418 13.27881,-0.02008 14.25196,-2.486329 0.55651,-1.410365 0.85116,-4.232337 0.65429,-6.269531 -0.35051,-3.628379 -0.46749,-3.703125 -5.76367,-3.703125 -4.16439,0 -5.40625,0.408146 -5.40625,1.775391 0,1.383492 -1.02849,1.696972 -4.65625,1.423828 l -4.65429,-0.349609 v -9.117188 -9.11914 h 4.38085 c 4.14187,0 4.40014,0.203072 4.72461,3.705078 0.33512,3.617149 0.46605,3.703125 5.6211,3.703125 5.85878,0 6.5858,-1.025243 6.61523,-9.337891 0.0239,-6.728332 -2.39777,-7.757812 -18.25976,-7.757812 z m 40.19336,0 c -17.52493,0 -17.02288,-0.621528 -16.16211,20.11914 0.50478,12.163529 0.91874,14.75266 2.56054,16.001953 1.35864,1.033824 6.0351,1.490235 15.26368,1.490235 13.19443,0 13.31377,-0.02551 14.57421,-2.904297 0.74126,-1.692963 1.27149,-8.662048 1.27149,-16.720703 0,-18.518497 0.51793,-17.986328 -17.50781,-17.986328 z m 63.50586,0 v 18.80664 18.804688 h 5.37304 5.375 l 0.6211,-10.542969 c 0.34168,-5.798167 0.81433,-14.260179 1.05078,-18.804688 l 0.42968,-8.263671 h -6.42382 z m 72.26562,0 c -9.36584,0 -9.76471,0.108393 -11.87695,3.195312 -1.98547,2.901639 -2.12991,4.440644 -1.57617,16.810547 0.77425,17.296077 0.99587,17.605469 12.54492,17.605469 8.43433,0 8.59179,0.05061 8.59179,2.847654 0,2.25368 -0.55361,2.84961 -2.64843,2.84961 -1.45663,0 -3.38484,0.29359 -4.28321,0.65235 -1.03877,0.41481 -1.90165,-0.22836 -2.37109,-1.76758 -0.6357,-2.08437 -1.44675,-2.37196 -5.84766,-2.07618 -4.71554,0.31693 -5.13849,0.59464 -5.46875,3.59961 -0.19684,1.79117 0.23143,4.73964 0.95313,6.55274 l 1.3125,3.29687 h 13.19726 c 10.74296,0 13.56884,-0.35127 15.19922,-1.88672 1.82386,-1.71763 2.00391,-4.11125 2.00391,-26.783198 V 60.273438 h -3.06641 c -1.68659,0 -3.71948,0.642245 -4.51758,1.425781 -1.1609,1.13969 -1.55154,1.13969 -1.95312,0 -0.34988,-0.993 -3.43853,-1.425781 -10.19336,-1.425781 z m -53.64844,2.451171 v 17.580079 17.580078 h 6.02539 6.02344 V 84.777344 71.671875 h 4.92774 4.92773 v 13.105469 13.107422 l 3.56055,-0.01563 c 1.95763,-0.0086 4.67979,-0.328709 6.05078,-0.710938 2.46747,-0.687942 2.49065,-0.863892 2.1914,-17.365234 L 407.75,63.123047 391.04883,62.923828 Z m -339.318356,7.683594 -0.05664,0.123047 0.154297,-0.002 c -0.02781,-0.0142 -0.05409,-0.03311 -0.08203,-0.04687 -0.0057,-0.02469 -0.01,-0.04953 -0.01563,-0.07422 z M 287.82617,70.53125 h 4.92969 4.92773 v 9.117188 9.117187 h -3.79492 c -4.84206,0 -6.0625,-2.276874 -6.0625,-11.320313 z m 137.99414,1.140625 h 4.97852 4.97851 l -0.32422,7.691406 -0.32421,7.69336 -3.8711,0.339843 c -2.12975,0.186539 -4.22405,-0.02689 -4.65429,-0.474609 -0.43023,-0.447718 -0.78321,-4.063286 -0.78321,-8.033203 z m -96.92383,0.568359 h 4.38086 4.38086 v 7.408204 7.408203 l -4.70703,0.353515 -4.70508,0.353516 0.32422,-7.761719 z"
                                 transform="matrix(0.46885155,0,0,0.45404955,107.82601,36.364108)"
                                 inkscape:connector-curvature="0" />
                            </g>
                          </g>
                        </g>
                      </g>
                    </g>
                  </g>
                </g>
              </g>
              <g
                 id="g3805"
                 transform="translate(-50.496642,-4.4591876)">
                <path
                   transform="matrix(0.46885155,0,0,0.45404955,107.82601,36.364108)"
                   d="m 109.08984,46.597656 0.4668,23.648438 c 0.25631,13.006699 0.85092,24.545629 1.32227,25.642578 0.65893,1.533456 2.18858,1.996094 6.61523,1.996094 5.48086,0 5.90293,-0.218799 8.79297,-4.558594 1.66972,-2.507315 3.39547,-4.560547 3.83398,-4.560547 0.4385,0 2.16235,2.053232 3.83203,4.560547 2.81919,4.233395 3.40625,4.558594 8.22852,4.558594 2.85609,0 5.70552,-0.644115 6.33203,-1.429688 0.64906,-0.813847 1.48204,-11.845181 1.93555,-25.642578 l 0.79687,-24.214844 h -6.06836 -6.06835 L 138.41992,56 c -0.37892,5.171339 -0.97719,12.913521 -1.33008,17.203125 l -0.64062,7.798828 -3.33984,-4.216797 -3.3418,-4.216797 -3.53906,4.386719 -3.53907,4.388672 -0.80664,-17.373047 -0.80469,-17.373047 h -5.99414 z m 64.25782,13.675782 c -13.19446,0 -13.31573,0.02551 -14.57618,2.904296 -0.69904,1.596566 -1.27148,3.973159 -1.27148,5.283204 0,2.30469 0.33727,2.356885 10.4043,1.58789 l 10.40429,-0.794922 v 2.917969 c 0,2.873739 -0.12494,2.917969 -8.28515,2.917969 -11.82494,0 -12.52344,0.584291 -12.52344,10.492187 0,5.968402 0.48236,8.687294 1.8125,10.216797 1.48966,1.712956 3.49979,2.085938 11.28125,2.085938 5.90368,0 9.96178,-0.516362 10.78125,-1.369141 1.02218,-1.06371 1.31445,-1.06371 1.31445,0 0,0.842611 1.73311,1.369141 4.51563,1.369141 h 4.51758 l -0.47071,-17.234375 c -0.41589,-15.234917 -0.70988,-17.415771 -2.53515,-18.804688 -1.48625,-1.130929 -5.79223,-1.572268 -15.36914,-1.572265 z m 23.24218,0 0.73828,17.380859 c 0.60815,14.308423 1.06232,17.631866 2.56836,18.804687 1.09863,0.855539 5.24493,1.425782 10.38086,1.425782 8.39219,0 8.55274,0.05173 8.55274,2.847654 0,2.60679 -0.40877,2.84961 -4.81055,2.84961 -3.26628,0 -5.01342,-0.54838 -5.44141,-1.70898 -0.90087,-2.443171 -10.07975,-2.364599 -10.98632,0.0937 -1.13795,3.08597 -0.73624,6.70225 1.03906,9.33984 1.59916,2.37591 2.49945,2.53006 14.51172,2.49609 8.33317,-0.0236 13.41525,-0.5204 14.54883,-1.42382 1.45647,-1.16079 1.8673,-5.54473 2.50976,-26.746098 l 0.76953,-25.359374 h -4.75586 c -2.6156,0 -5.3475,0.616945 -6.07031,1.36914 -0.85206,0.88667 -1.31445,5.494879 -1.31445,13.105469 v 11.738281 h -4.92774 -4.92773 V 74.072266 c 0,-13.848394 0.0273,-13.798829 -7.92578,-13.798828 z M 3.0527344,71.671875 3.1972656,72.730469 c 0.035259,-0.01711 0.06824,-0.0376 0.1035156,-0.05469 0.0035,-0.334645 0.00801,-0.669269 0.011719,-1.003906 z M 174.47461,81.927734 c 4.52676,0 4.92969,0.232547 4.92969,2.84961 0,2.617062 -0.40293,2.849609 -4.92969,2.849609 -4.52676,0 -4.92774,-0.232547 -4.92773,-2.849609 0,-2.617063 0.40097,-2.84961 4.92773,-2.84961 z"
                   style="fill:#010101;stroke-width:1.11721528"
                   id="path2553"
                   inkscape:connector-curvature="0" />
              </g>
            </g>
          </g>
        </g>
      </g>
    </g>
  </g>
</svg>
